<?xml version="1.0" encoding="UTF-8" standalone="no"?>
<!-- Created with Inkscape (http://www.inkscape.org/) -->

<svg
   xmlns:dc="http://purl.org/dc/elements/1.1/"
   xmlns:cc="http://creativecommons.org/ns#"
   xmlns:rdf="http://www.w3.org/1999/02/22-rdf-syntax-ns#"
   xmlns:svg="http://www.w3.org/2000/svg"
   xmlns="http://www.w3.org/2000/svg"
   xmlns:sodipodi="http://sodipodi.sourceforge.net/DTD/sodipodi-0.dtd"
   xmlns:inkscape="http://www.inkscape.org/namespaces/inkscape"
   width="114.10244mm"
   height="54.069965mm"
   viewBox="0 0 114.10244 54.069963"
   version="1.1"
   id="svg75"
   inkscape:version="0.92.4 5da689c313, 2019-01-14"
   sodipodi:docname="iq-down.svg">
  <defs
     id="defs69">
    <marker
       inkscape:stockid="Arrow2Send"
       orient="auto"
       refY="0"
       refX="0"
       id="Arrow2Send"
       style="overflow:visible"
       inkscape:isstock="true">
      <path
         id="path1106"
         style="fill:#000000;fill-opacity:1;fill-rule:evenodd;stroke:#000000;stroke-width:0.625;stroke-linejoin:round;stroke-opacity:1"
         d="M 8.7185878,4.0337352 -2.2072895,0.01601326 8.7185884,-4.0017078 c -1.7454984,2.3720609 -1.7354408,5.6174519 -6e-7,8.035443 z"
         transform="matrix(-0.3,0,0,-0.3,0.69,0)"
         inkscape:connector-curvature="0" />
    </marker>
    <marker
       inkscape:stockid="Arrow2Mend"
       orient="auto"
       refY="0"
       refX="0"
       id="Arrow2Mend"
       style="overflow:visible"
       inkscape:isstock="true">
      <path
         id="path1100"
         style="fill:#000000;fill-opacity:1;fill-rule:evenodd;stroke:#000000;stroke-width:0.625;stroke-linejoin:round;stroke-opacity:1"
         d="M 8.7185878,4.0337352 -2.2072895,0.01601326 8.7185884,-4.0017078 c -1.7454984,2.3720609 -1.7354408,5.6174519 -6e-7,8.035443 z"
         transform="scale(-0.6)"
         inkscape:connector-curvature="0" />
    </marker>
    <marker
       inkscape:stockid="Arrow2Lend"
       orient="auto"
       refY="0"
       refX="0"
       id="Arrow2Lend"
       style="overflow:visible"
       inkscape:isstock="true">
      <path
         id="path1094"
         style="fill:#000000;fill-opacity:1;fill-rule:evenodd;stroke:#000000;stroke-width:0.625;stroke-linejoin:round;stroke-opacity:1"
         d="M 8.7185878,4.0337352 -2.2072895,0.01601326 8.7185884,-4.0017078 c -1.7454984,2.3720609 -1.7354408,5.6174519 -6e-7,8.035443 z"
         transform="matrix(-1.1,0,0,-1.1,-1.1,0)"
         inkscape:connector-curvature="0" />
    </marker>
    <marker
       inkscape:stockid="Arrow1Lend"
       orient="auto"
       refY="0"
       refX="0"
       id="Arrow1Lend"
       style="overflow:visible"
       inkscape:isstock="true">
      <path
         id="path1076"
         d="M 0,0 5,-5 -12.5,0 5,5 Z"
         style="fill:#000000;fill-opacity:1;fill-rule:evenodd;stroke:#000000;stroke-width:1.00000003pt;stroke-opacity:1"
         transform="matrix(-0.8,0,0,-0.8,-10,0)"
         inkscape:connector-curvature="0" />
    </marker>
  </defs>
  <sodipodi:namedview
     id="base"
     pagecolor="#ffffff"
     bordercolor="#666666"
     borderopacity="1.0"
     inkscape:pageopacity="0.0"
     inkscape:pageshadow="2"
     inkscape:zoom="1.979899"
     inkscape:cx="229.74569"
     inkscape:cy="60.218335"
     inkscape:document-units="mm"
     inkscape:current-layer="layer1"
     showgrid="false"
     inkscape:window-width="1920"
     inkscape:window-height="1005"
     inkscape:window-x="1920"
     inkscape:window-y="0"
     inkscape:window-maximized="1"
     inkscape:snap-others="false"
     inkscape:snap-grids="false"
     inkscape:snap-to-guides="false" />
  <metadata
     id="metadata72">
    <rdf:RDF>
      <cc:Work
         rdf:about="">
        <dc:format>image/svg+xml</dc:format>
        <dc:type
           rdf:resource="http://purl.org/dc/dcmitype/StillImage" />
        <dc:title></dc:title>
      </cc:Work>
    </rdf:RDF>
  </metadata>
  <g
     inkscape:groupmode="layer"
     id="layer3"
     inkscape:label="Layer 2"
     transform="translate(-27.028802,-1.5120955)" />
  <g
     inkscape:label="Layer 1"
     inkscape:groupmode="layer"
     id="layer1"
     transform="translate(-70.407123,-82.987585)">
    <g
       id="g906"
       transform="matrix(0.8196759,0,0,0.79350751,15.653605,16.451616)">
      <path
         d="m 66.798985,142.66531 h 9.280474 V 89.664419 h -9.280474 z"
         style="font-style:normal;font-variant:normal;font-weight:600;font-stretch:normal;font-size:40.00005722px;line-height:1.25;font-family:'URW Gothic L';-inkscape-font-specification:'URW Gothic L, Semi-Bold';font-variant-ligatures:normal;font-variant-caps:normal;font-variant-numeric:normal;font-feature-settings:normal;text-align:start;letter-spacing:0px;word-spacing:0px;writing-mode:lr-tb;text-anchor:start;fill:#000000;fill-opacity:1;stroke:none;stroke-width:1.74254334"
         id="path894"
         inkscape:connector-curvature="0" />
      <path
         d="m 137.20168,134.77614 c -0.94837,0.14344 -1.35482,0.21516 -1.829,0.21516 -1.62578,0 -2.98059,-0.43032 -5.08055,-1.57784 4.06444,-4.44662 6.02892,-9.96904 6.02892,-16.99758 0,-15.85006 -11.3127,-27.683818 -26.48661,-27.683818 -15.038438,0 -26.689837,11.977198 -26.689837,27.396948 0,15.2763 11.990104,27.46866 27.096277,27.46866 5.08055,0 10.36433,-1.57784 13.88684,-4.15975 4.26767,3.08395 7.51922,4.30319 11.85463,4.30319 0.27096,0 0.6774,0 1.21933,-0.0717 z m -20.93188,-2.00815 c -2.09996,1.00407 -3.52251,1.36267 -6.02892,1.36267 -6.29988,0 -11.041732,-2.43847 -14.835211,-7.74573 2.167703,-0.43032 3.183813,-0.57376 4.809591,-0.57376 5.487,0 10.29658,2.07987 16.05454,6.95682 z m 6.63859,-4.73351 c -6.09666,-6.38305 -14.63199,-10.25592 -22.62539,-10.25592 -2.980591,0 -5.419257,0.28688 -7.72244,0.93236 -0.135481,-1.29096 -0.135481,-1.86472 -0.135481,-2.5102 0,-10.25592 7.451478,-18.001651 17.273881,-18.001651 9.89014,0 17.27388,7.817451 17.27388,18.360251 0,4.80523 -1.35482,8.53465 -4.06445,11.47516 z"
         style="font-style:normal;font-variant:normal;font-weight:600;font-stretch:normal;font-size:40.00005722px;line-height:1.25;font-family:'URW Gothic L';-inkscape-font-specification:'URW Gothic L, Semi-Bold';font-variant-ligatures:normal;font-variant-caps:normal;font-variant-numeric:normal;font-feature-settings:normal;text-align:start;letter-spacing:0px;word-spacing:0px;writing-mode:lr-tb;text-anchor:start;fill:#000000;fill-opacity:1;stroke:none;stroke-width:1.74254334"
         id="path896"
         inkscape:connector-curvature="0" />
    </g>
    <path
       inkscape:connector-curvature="0"
       id="path898"
       style="font-style:normal;font-variant:normal;font-weight:600;font-stretch:normal;font-size:40.00005722px;line-height:1.25;font-family:'URW Gothic L';-inkscape-font-specification:'URW Gothic L, Semi-Bold';font-variant-ligatures:normal;font-variant-caps:normal;font-variant-numeric:normal;font-feature-settings:normal;text-align:start;letter-spacing:0px;word-spacing:0px;writing-mode:lr-tb;text-anchor:start;fill:#000000;fill-opacity:1;stroke:none;stroke-width:1.74254334"
       d="m 184.50956,117.86692 -18.12593,19.19063 -18.12593,-19.19063 h 9.69142 V 82.987585 h 16.86902 v 34.879335 z" />
  </g>
</svg>
